<svg version="1.1" viewBox="0 0 1920 1920" xmlns="http://www.w3.org/2000/svg">
 <path d="m1500.6 720.25c0-96.743-32.459-175.87-86.347-237.85 8.6507-22.46 37.459-112.62-8.3331-234.6 0 0-70.474-23.809-230.94 90.87-67.061-19.682-138.96-29.523-210.39-29.84-71.426 0.31769-143.33 10.158-210.31 29.84-160.55-114.68-231.1-90.87-231.1-90.87-45.792 121.98-16.904 212.14-8.2542 234.6-53.808 61.982-86.504 141.11-86.504 237.85 0 339.67 196.18 415.7 382.76 438.08 0 0-134.12 83.092-134.12 222.77-47.855 22.698-250.39 92.219-325.39-43.252 0 0-44.364-85.077-128.73-91.346 0 0-82.061-1.1116-5.7937 53.886 0 0 55.078 27.301 93.33 129.68 0 0 42.538 215.71 363.88 118.81 3.2536 1.6666 1.1904 104.36 1.1904 125.39h578.23s0.9523-206.1 0.9523-271.66c0-161.18-107.62-217.61-137.85-244.99 187.22-21.904 383.72-96.822 383.72-437.37" fill-rule="evenodd" stroke-width=".74402"/>
</svg>
